<svg xmlns="http://www.w3.org/2000/svg" viewBox="0 0 820 280" font-family="ui-sans-serif,system-ui,sans-serif">
  <rect width="820" height="280" fill="#FAFAFA" rx="12"/>
  <text x="410" y="26" text-anchor="middle" font-size="15" font-weight="700" fill="#111827">Capstone Project: Timeline 4 Minggu</text>

  <!-- Week headers -->
  <rect x="40" y="42" width="188" height="30" rx="5" fill="#1D4ED8"/>
  <text x="134" y="62" text-anchor="middle" font-size="12" font-weight="700" fill="white">Pekan 11</text>

  <rect x="236" y="42" width="188" height="30" rx="5" fill="#065F46"/>
  <text x="330" y="62" text-anchor="middle" font-size="12" font-weight="700" fill="white">Pekan 12</text>

  <rect x="432" y="42" width="188" height="30" rx="5" fill="#92400E"/>
  <text x="526" y="62" text-anchor="middle" font-size="12" font-weight="700" fill="white">Pekan 13</text>

  <rect x="628" y="42" width="152" height="30" rx="5" fill="#4C1D95"/>
  <text x="704" y="62" text-anchor="middle" font-size="12" font-weight="700" fill="white">Pekan 14</text>

  <!-- Week 11 tasks -->
  <rect x="40" y="80" width="188" height="36" rx="5" fill="#DBEAFE" stroke="#3B82F6" stroke-width="1"/>
  <text x="134" y="96" text-anchor="middle" font-size="9" font-weight="600" fill="#1D4ED8">EDA + Dataset Audit</text>
  <text x="134" y="108" text-anchor="middle" font-size="8" fill="#374151">Validasi data, deteksi leakage</text>

  <rect x="40" y="120" width="188" height="36" rx="5" fill="#DBEAFE" stroke="#3B82F6" stroke-width="1"/>
  <text x="134" y="136" text-anchor="middle" font-size="9" font-weight="600" fill="#1D4ED8">Pre-registration</text>
  <text x="134" y="148" text-anchor="middle" font-size="8" fill="#374151">Hipotesis + metrik + baseline</text>

  <rect x="40" y="160" width="188" height="26" rx="5" fill="#EFF6FF" stroke="#93C5FD" stroke-width="1"/>
  <text x="134" y="177" text-anchor="middle" font-size="8" fill="#374151">📦 prereg + EDA notebook</text>

  <!-- Week 12 tasks -->
  <rect x="236" y="80" width="188" height="36" rx="5" fill="#D1FAE5" stroke="#10B981" stroke-width="1"/>
  <text x="330" y="96" text-anchor="middle" font-size="9" font-weight="600" fill="#065F46">Baseline Training</text>
  <text x="330" y="108" text-anchor="middle" font-size="8" fill="#374151">Jalankan baseline seed x3</text>

  <rect x="236" y="120" width="188" height="36" rx="5" fill="#D1FAE5" stroke="#10B981" stroke-width="1"/>
  <text x="330" y="136" text-anchor="middle" font-size="9" font-weight="600" fill="#065F46">Ablation Study</text>
  <text x="330" y="148" text-anchor="middle" font-size="8" fill="#374151">Satu variabel per run</text>

  <rect x="236" y="160" width="188" height="26" rx="5" fill="#ECFDF5" stroke="#6EE7B7" stroke-width="1"/>
  <text x="330" y="177" text-anchor="middle" font-size="8" fill="#374151">📦 hasil ablation + log</text>

  <!-- Week 13 tasks -->
  <rect x="432" y="80" width="188" height="36" rx="5" fill="#FEF3C7" stroke="#F59E0B" stroke-width="1"/>
  <text x="526" y="96" text-anchor="middle" font-size="9" font-weight="600" fill="#92400E">Error Analysis</text>
  <text x="526" y="108" text-anchor="middle" font-size="8" fill="#374151">Confusion matrix, worst-k</text>

  <rect x="432" y="120" width="188" height="36" rx="5" fill="#FEF3C7" stroke="#F59E0B" stroke-width="1"/>
  <text x="526" y="136" text-anchor="middle" font-size="9" font-weight="600" fill="#92400E">Demo Prototype</text>
  <text x="526" y="148" text-anchor="middle" font-size="8" fill="#374151">Streamlit / Gradio minimal</text>

  <rect x="432" y="160" width="188" height="26" rx="5" fill="#FFF7ED" stroke="#FCD34D" stroke-width="1"/>
  <text x="526" y="177" text-anchor="middle" font-size="8" fill="#374151">📦 demo + error analysis</text>

  <!-- Week 14 tasks -->
  <rect x="628" y="80" width="152" height="36" rx="5" fill="#EDE9FE" stroke="#8B5CF6" stroke-width="1"/>
  <text x="704" y="96" text-anchor="middle" font-size="9" font-weight="600" fill="#4C1D95">Presentasi (10 menit)</text>
  <text x="704" y="108" text-anchor="middle" font-size="8" fill="#374151">Problem → method → result</text>

  <rect x="628" y="120" width="152" height="36" rx="5" fill="#EDE9FE" stroke="#8B5CF6" stroke-width="1"/>
  <text x="704" y="136" text-anchor="middle" font-size="9" font-weight="600" fill="#4C1D95">Laporan Final</text>
  <text x="704" y="148" text-anchor="middle" font-size="8" fill="#374151">Repo bersih + README</text>

  <rect x="628" y="160" width="152" height="26" rx="5" fill="#F5F3FF" stroke="#C4B5FD" stroke-width="1"/>
  <text x="704" y="177" text-anchor="middle" font-size="8" fill="#374151">📦 repo + slide</text>

  <!-- Progress bar -->
  <rect x="40" y="198" width="740" height="10" rx="5" fill="#E5E7EB"/>
  <rect x="40" y="198" width="185" height="10" rx="5" fill="#3B82F6"/>
  <rect x="225" y="198" width="185" height="10" rx="0" fill="#10B981"/>
  <rect x="410" y="198" width="185" height="10" rx="0" fill="#F59E0B"/>
  <rect x="595" y="198" width="185" height="10" rx="5" fill="#8B5CF6"/>
  <text x="410" y="220" text-anchor="middle" font-size="8" fill="#6B7280">Progress Capstone</text>

  <!-- Assessment row -->
  <rect x="40" y="228" width="740" height="36" rx="6" fill="#F9FAFB" stroke="#E5E7EB"/>
  <text x="400" y="244" text-anchor="middle" font-size="9" font-weight="700" fill="#374151">Penilaian Capstone:</text>
  <text x="400" y="258" text-anchor="middle" font-size="9" fill="#6B7280">Kualitas eksperimen (40%)  ·  Analisis kritis (30%)  ·  Presentasi &amp; demo (20%)  ·  Reproducibility (10%)</text>
</svg>
